<svg xmlns="http://www.w3.org/2000/svg" viewBox="0 0 480 378"><defs><style>.cls-1{fill:#00576b;}.cls-2{fill:#fff;}</style></defs><title>lithuania-with-pointers</title><g id="Layer_5" data-name="Layer 5"><path id="Lithuania" class="cls-1" d="M464.1,169.48l-1.82-1.27-12.82-1.77-4.63,1.43-1.29,0-3.65-1.2-1-.32-1.27-.79-.38-1.41.67-2.53,1.1-2.28.59-1.22.28-.74.2-.53.87-5,.56-1.53,2.66-2.86.18-1.6L442.78,143l.26-3.19,1.38-2.57,1.82-2.24,1.38-2.39.65-3,0-1.14,0-2.37-.47-3.59-.83-3.24-4.37-.17-4.34-1-10.71-4.73-4.89-3.53-4.24-7.06-1.92-4-2-3-7.72-6.28L402,84.22l-4.35-2.74-6.93-4.32-5.88-6.29-2.27-2.45-4.43-2.9-1-.9-.69-1.41L375,58.65l-.59-1.16-.89-.31-4.53.44-1.26-.22-3.82-1.76-5.12,1-8-1.18-18.12-2.85-2.73-2-2.25-4-1.42-4.33L325.56,41,323,38.31l-.77-1.41-.87-2.42-2.07-8.17-2-5.66-1.37-2.25-1.58-.48-1,.94-.26,1.43-.08,1.5L312.49,23l-.6.18-1.63-.65-.79.09-6.74,3.09-2.68,1.2-2.95,2.37-6,8.34-1.39,1.52-4.31,2.54-2.55,1.1-2.47-.66-4.81-3.48-2.43-.91-2.32.43-9.06,4.8-2,.34h-.14l-2.23-.41-2.52-1.42-7.08-5.52-8.22-2.69-1-.33-2.51-.09L230.94,34l-2.32-.43-.09-.41.09-.84-.08-1-.65-.93-.65-.25-2.05.33-5.2-.28-2.42.65-4.52,2.65-2.7-.19L202.62,30l-5-2.23L196,27.43l-8.7,1.91-1.41.91.64,1.43-3.77,4-3.83.87-3.35-2.72L173,27.14l-1.79-4-2.39-1.37-2.66.45-2.25,1.47-2.77,1.89-10.66,4.15-1.12.15L148,29.4l-3.27-3.59-1.93-1.13-.19-.08-4.8-1.19-22.2.22L114.18,23l-2.73-2.16-1.37-.79-3.37-.34L98.29,23.4,96.92,24l-21.35,9.2L69,33.34l-2.84,1.33L55.35,42.4l-1.18.29-3.45,0-2.33,1.17L45.5,46.12,42.73,49l-2,2.85-1.48,4.3-.67,3.74-1,2.09-.18.37L34.25,63l-4.44-.11-2.88.56.17,4.78-.24,5.62-.26,5.92L26.36,81l-.78,1.81-.21,1.5-.25,5.94.69,11.42.6,2.71.23,3.36.44.85.64.45.72.87,2.94,5.65.41,1.36.13,2.6.47,2.37,2.53,7.72.18,1.43,0,1-.18,1.08-.17,1.67.29,1.26.71,1.12.68.87.32.43,0,1.09.8,4,.68,5.48-.13,3.26-1.25,1.46-.7,1L33,161.46l-.24.08v.33l.38,1,4.61-4.09.8.12L38.34,162l.18,1.43.6.62.5.6.56,1.45.47,1.6.1,1.09-.48,1.33-.58.06-.56-.19-.5.48,0,1,.21,3.1-.12.67,6.56-5,1.91-.26,2.3,2.51,4.28,8.08.2.38,1.67,1.4,1,.87,7.79.61,3.11,1.61,5.31,4.45,1.24,1.8,1.3,1.2,5.33,1.35,2.57,2.34,1.45,1,2.72.75,1.83,1.31.76.36.68-.32,2.06-1.44,2-.19.14.11.75.58.2,1.51-.06,2.26.66,2.19,1.68,1.56,2,.72,1.78-.12,1.47-1,1-1.22,1-1,8.46-2,1.44.2,12.87,1.9,8.17-2.25,1.84,1.12.43.51.75.85.76,2.7,1.18,6.13,1,3,.88,1.69,1.24.69,4.38.09.72.18.51.59.52.94.75.84,1,.44-.9,1.83.6,1,4.64,2.26,1,1.19.6,1.68,1.07,5.46.24,2.51-.23,2.42L158.21,242,157,243.27l-2.45,1.8-1.09,1.74-.64.74-1.42.73-.83.65-.64.15-.29.26-.16.66.13.67.19.59v.5L148,254.33l-.36.91,0,1.33.43,3.11.07,1.5-.38,2.43-1.82,6.4-.78,10.44.34,5.28,2,4.65,4.58,8.53,1.54-1.15,2.06-3.73.1-.16,2-.89,1.66.28,4.69,2.49.83.1,1.81-.31.83.18.82.85.42,1.1.33,1,.47.93.88.6,2.73.37.47.76-.31,1.25-.46,1.5,0,1.42,1.39,2,1.82,0,1.87-.73,1.61-.4,1.41.77,4.85,4.15,3,1.88,6.35,2.49,1.6,1.35,1.41,1.27.78,1.18,1.39,2.77.73,1,.83.6,1.66.42.74.51,1.3,1.94,1.07,2.68.86,3,.56,2.94,1.14,6.27,0,3-1.2,2.08-.94.82-.45.5-.39.58-.07,1.43.34,1.26.63,1,.84.68.49.59.24.67-.06.75-.35.75,2.76.77,7.08,4.4,1.38.51,1.24-.08,4-1.74,4.94-.65,1.39-1,1.23-.5.54.09,1.43.84.69.25.64-.08,6.08-3.5,1.19-.25,1.23.5,2.36,1.51,1.29.34,5.13-.09,2.32-.67,4.93-2.69,2.61-.42,2.52.83,2.23,2.76,1.4,3.84.84,1.33,1.53.24,2.72-.08,2.52.73h2.87l2.86-1.44,9.07-8.26,4-2.37,5.07-1,1.9-1.53h.3l.3.08.3.16,1,2.59,1.19,1.16,1.49.15,5.11-.89,1.42-.86,1-2.27h.05l.11-3.76-.72-2.5-1.11-2.33-1-2.92-.41-2,.14-.5h.49l.73-.93,1.46-.93,0-.51-.11-.91v-1l.29-.84,2.34-1.45.39-.25,3.62-.47,3.7.45,6.27,2.34,3.52-.64,3.41-2.23,3.18-3.72,1.28-2.79,1.51-6.38,1-1.86,1.37-.19L351,313.8l6.46-.45,1.88-1.3,3.09-4.75,2-1,1,.15.55.57.4.75,5.7,7.49-.62.51-1.87-.12-1.59.95-.17,1.34,1.93,1,.46,1.16-.56,1-2.24.8-.57,1,.64,2.42,1.85,1.63,2.19,1,7,1,1.72-.12.83-.52,1.17-1.77v0l.88-.35,2.95.26.94-.11,1.82-1.47.54-2.1-.05-6.19.22-.59.9-1.28.18-.59-.21-.83L390,313l-.45-.16-.35-.42-.53-1.48-.66-1.16-.72-1-.8-.82-.34-.08-.92.36-.3-.08-.31-.49-.89-2.41-.27-1.33-.52-1.08-.72-.37-.37-.18-1.17.27L376,305.25l-3.42.33-1.68-.63-1.11-1.74,0-3.43,1.41-2.87,3.51-4.52,1.35-2.95.23-2.6-.11-2.76.26-3.52.76-2.78,1.18-1.7,3.82-2.38.93-.58,1.42-1.54,1.06-2.12.33-2.68-.5-2.58-2.06-4.81-.6-2.66,0-1.68.31-1.35.4-1.26.26-1.43.11-1.42-.45-6.85.19-1.77.79-1.28,1.65-1.54.77-.43.53,0,.38-.26.36-1.18-.13-1.09-.69-2.66-.18-1.25.76-2.53,1.5-1.63,1.8-1.47,1.53-2,.5-1.36.11-1.25.22-1,.89-.78,2.9-1.34,1.4,0,2.86.59,1.45,0,9.37-2.2,2.74-1.68,1.12-1.28,1.24-2,1.27-2.14,2.69-6.27.36-1.19,0-1.67-.15-3.35.14-1.51,2.32-3.92,3.48-.7,8.6,1.88.67,0,.76-.28.46-.51.4-.86.65-.61,1.1-.21,8.28,3.39,1.71-.39,1.13-2,.71-4,.34-3.78.29-.81.23-.63.75-1.15.38-.57,2.11-2.34,1.17-.72,3-.95,1.94-.58,1.8-1.5.78-2.21ZM29.65,114l-2.33-3.29.46,3.71-.54,8.43.55,2.79-.48,1.24.4.68-.57,2.24L25.8,141.15,22.25,152l-3.57,7.81-6.21,9.78,5,1.55.06-2.51,4-4.85L22.58,161l.64-2.73,1.32-3,1.53-2.44,1.16-1.38,0-.83-1.4-1.9.52-2.08,1.28-2.21,1-2.13.21-5.11.21-1.57.8-2.24.26-1.66.34-11.8Z"/><path class="cls-2" d="M317.8,218.69a14.22,14.22,0,0,0-14.23,14.24c0,10.67,14.23,26.43,14.23,26.43S332,243.6,332,232.93A14.22,14.22,0,0,0,317.8,218.69Zm0,19.32a5.09,5.09,0,1,1,5.08-5.08A5.08,5.08,0,0,1,317.8,238Z"/><path class="cls-2" d="M125.78,114.48a14.22,14.22,0,0,0-14.23,14.24c0,10.67,14.23,26.43,14.23,26.43S140,139.39,140,128.72A14.23,14.23,0,0,0,125.78,114.48Zm0,19.32a5.09,5.09,0,1,1,5.09-5.08A5.09,5.09,0,0,1,125.78,133.8Z"/><path class="cls-2" d="M271.67,29.28a14.22,14.22,0,0,0-14.24,14.23c0,10.68,14.24,26.43,14.24,26.43S285.9,54.19,285.9,43.51A14.22,14.22,0,0,0,271.67,29.28Zm0,19.31a5.08,5.08,0,1,1,5.08-5.08A5.08,5.08,0,0,1,271.67,48.59Z"/></g></svg>