<svg id="Layer_3" data-name="Layer 3" xmlns="http://www.w3.org/2000/svg" xmlns:xlink="http://www.w3.org/1999/xlink" viewBox="0 0 982.22 566.46"><defs><style>.cls-1{fill:#20c3c3;}.cls-2{fill:#fff;}.cls-3{fill:#23b5da;}.cls-4{fill:#8780d5;}.cls-5{fill:#0086bd;}.cls-6{fill:#3c85d1;}</style><symbol id="circle" data-name="circle" viewBox="0 0 4 4"><circle class="cls-3" cx="2" cy="2" r="2"/></symbol><symbol id="New_Symbol_5" data-name="New Symbol 5" viewBox="0 0 2 2"><circle class="cls-2" cx="1" cy="1" r="1"/></symbol><symbol id="New_Symbol_1" data-name="New Symbol 1" viewBox="0 0 4 4"><circle class="cls-1" cx="2" cy="2" r="2"/></symbol></defs><title>stars</title><use width="4" height="4" transform="matrix(1, 0.07, -0.07, 1, 835.15, 436.13)" xlink:href="#circle"/><use width="4" height="4" transform="matrix(1, 0.07, -0.07, 1, 752.55, 197.92)" xlink:href="#circle"/><use width="4" height="4" transform="matrix(1, 0.07, -0.07, 1, 766.9, 38.74)" xlink:href="#circle"/><circle class="cls-4" cx="785.42" cy="148.54" r="10.5"/><circle class="cls-5" cx="883.2" cy="459.63" r="9.5"/><use width="2" height="2" transform="matrix(1, 0.07, -0.07, 1, 816.2, 157.22)" xlink:href="#New_Symbol_5"/><use width="4" height="4" transform="matrix(1, 0.07, -0.07, 1, 244.99, 110.41)" xlink:href="#circle"/><use width="4" height="4" transform="matrix(1, 0.07, -0.07, 1, 5.31, 6.44)" xlink:href="#circle"/><use width="4" height="4" transform="matrix(1, 0.07, -0.07, 1, 382.94, 177.71)" xlink:href="#circle"/><use width="4" height="4" transform="matrix(1, 0.07, -0.07, 1, 492.3, 194.92)" xlink:href="#circle"/><use width="4" height="4" transform="matrix(1, 0.07, -0.07, 1, 510.78, 48.36)" xlink:href="#circle"/><circle class="cls-6" cx="451.43" cy="152.62" r="12.5"/><use width="2" height="2" transform="matrix(1, 0.07, -0.07, 1, 299.85, 191.51)" xlink:href="#New_Symbol_5"/><use width="4" height="4" transform="matrix(1, 0.07, -0.07, 1, 297.93, 273.27)" xlink:href="#New_Symbol_1"/><use width="4" height="4" transform="matrix(1, 0.07, -0.07, 1, 240.43, 16.24)" xlink:href="#New_Symbol_1"/><use width="4" height="4" transform="matrix(1, 0.07, -0.07, 1, 161.41, 193.79)" xlink:href="#New_Symbol_1"/><use width="4" height="4" transform="matrix(1, 0.07, -0.07, 1, 659.27, 132.36)" xlink:href="#New_Symbol_1"/><use width="4" height="4" transform="matrix(1, 0.07, -0.07, 1, 59.68, 69.92)" xlink:href="#circle"/><use width="4" height="4" transform="matrix(1, 0.07, -0.07, 1, 367.66, 66.73)" xlink:href="#circle"/></svg>