<svg width="1035" height="476" viewBox="0 0 1035 476" fill="none" xmlns="http://www.w3.org/2000/svg">
<path d="M1025.23 441.599C1021.65 449.953 1017.25 457.969 1012.07 465.539C1009.65 469.149 1006.99 472.612 1004.11 475.909C1004.08 475.942 1004.05 475.973 1004.02 476H113L113.12 475.909C113.922 475.317 118.628 471.714 125.948 465.539C131.2 461.117 137.79 455.367 145.19 448.449C205.714 392.125 321.974 258.806 225.148 136.675C135.136 23.14 232.051 2.53714 295.982 0.132461C320.545 -0.777979 345.049 3.01219 368.026 11.2759C397.563 21.8959 451.544 38.1749 521.873 45.6392C524.182 45.882 526.507 46.1247 528.864 46.3447C566.099 49.9317 603.584 50.5762 640.932 48.2715V48.2715C642.03 48.2108 643.137 48.1349 644.251 48.0591C681.197 45.6044 717.862 40.2379 753.865 32.0153C756.199 31.4767 758.499 30.9684 760.792 30.4602C880.757 4.19841 991.35 93.7024 963.698 194.85C953.475 232.263 956.073 272.141 990.155 304.403C1045.96 357.063 1039.2 408.927 1025.23 441.599Z" fill="#ECEFF1"/>
<path d="M911.786 439.686C908.209 448.513 903.806 456.982 898.634 464.98C896.209 468.794 893.548 472.453 890.668 475.936H0C0.801458 475.311 5.50602 471.504 12.8233 464.98C18.0729 460.308 24.6609 454.232 32.0583 446.923L125.933 427.528C127.146 427.278 128.381 427.151 129.62 427.151L229.698 427.007H229.802L279.372 426.943H279.484L321.32 426.895H348.706H376.757L491.702 426.734H491.887H500.791H516.435H535.967H541.16L560.9 426.51H567.424L624.84 426.43H643.178H651.994L718.314 426.342H738.062L800.881 426.254L853.905 426.189C855.382 426.19 856.853 426.365 858.289 426.71L911.786 439.686Z" fill="#454B69"/>
<path d="M627.88 255.315L626.382 255.605L558.648 268.576C538.975 272.343 519.018 276.131 499.034 274.685C484.557 273.635 471.032 269.356 457.122 265.602C449.26 263.476 440.925 262.628 438.259 253.855C434.581 241.746 440.567 223.816 441.978 211.545C443.327 199.502 444.124 187.157 441.721 175.255C441.187 172.581 440.484 169.943 439.615 167.357C437.206 160.232 433.42 152.825 435.465 145.592C437.078 139.854 441.998 135.756 446.601 131.962C455.617 124.561 464.823 116.266 468.4 105.172C470.155 99.7898 470.486 93.9972 472.375 88.6554C475.959 78.4965 484.962 70.9008 494.978 66.8776C504.993 62.8544 516.008 62 526.813 62C536.354 62.0005 545.884 62.6321 555.341 63.8905C565.654 65.2361 576.061 67.4495 585.125 72.5491C594.189 77.6488 601.829 86.0046 603.941 96.1905C606.931 110.595 598.63 125.934 603.084 139.921C605.325 146.992 610.508 152.704 614.105 159.176C617.038 164.59 618.849 170.537 619.428 176.662C620.008 182.788 619.345 188.968 617.48 194.833C613.174 208.134 602.632 221.589 608.031 234.486C611.466 242.687 620.24 247.067 626.355 253.566C626.899 254.149 627.407 254.732 627.88 255.315Z" fill="#454B69"/>
<path opacity="0.1" d="M625.88 253.68V255.659L558.612 268.594C539.073 272.351 519.254 276.128 499.407 274.686C485.03 273.639 471.598 269.372 457.783 265.628C449.975 263.508 441.697 262.663 439.049 253.914C435.396 241.838 441.342 223.958 442.742 211.721C444.083 199.712 464.721 155.868 462.334 144L585.664 149.367C586.495 155.922 619.09 188.823 617.059 195.11C612.783 208.373 602.313 221.791 607.675 234.653C611.094 242.831 619.807 247.199 625.88 253.68Z" fill="black"/>
<path d="M499.992 220.51C500.723 224.669 501.113 229.245 498.993 232.873C496.169 237.738 490.01 239.29 484.503 240.392L465.385 244.222C464.083 244.484 462.702 244.78 461.729 245.674C460.582 246.702 460.193 248.328 460.025 249.86C459.254 256.794 461.702 263.628 463.936 270.233C468.45 283.611 472.241 297.271 477.949 310.179C483.658 323.087 491.493 335.41 502.675 344.038C513.858 352.666 528.656 357.262 542.348 353.889C554.275 350.952 564.055 342.519 572.487 333.576C579.444 326.185 585.951 318.122 589.325 308.533C591.652 301.948 592.41 294.933 593.142 287.985C594.273 277.333 595.405 266.68 596.536 256.028C597.066 251.029 597.415 245.405 594.175 241.568C592.753 239.882 590.821 238.759 588.848 237.718C581.51 233.814 573.782 230.589 566.953 225.885C560.124 221.182 554.067 214.704 551.994 206.668C550.753 201.843 550.974 196.589 548.861 192.094C546.5 187.054 541.482 183.641 536.116 182.142C530.749 180.644 525.087 180.845 519.56 181.47C514.032 182.095 492.727 183.694 490.44 189.937C489.212 193.296 494.304 200.506 495.511 203.812C497.499 209.233 498.998 214.821 499.992 220.51Z" fill="#EFB7B9"/>
<path opacity="0.1" d="M499.992 220.51C500.723 224.669 501.113 229.245 498.993 232.873C496.169 237.738 490.01 239.29 484.503 240.392L465.385 244.222C464.083 244.484 462.702 244.78 461.729 245.674C460.582 246.702 460.193 248.328 460.025 249.86C459.254 256.794 461.702 263.628 463.936 270.233C468.45 283.611 472.241 297.271 477.949 310.179C483.658 323.087 491.493 335.41 502.675 344.038C513.858 352.666 528.656 357.262 542.348 353.889C554.275 350.952 564.055 342.519 572.487 333.576C579.444 326.185 585.951 318.122 589.325 308.533C591.652 301.948 592.41 294.933 593.142 287.985C594.273 277.333 595.405 266.68 596.536 256.028C597.066 251.029 597.415 245.405 594.175 241.568C592.753 239.882 590.821 238.759 588.848 237.718C581.51 233.814 573.782 230.589 566.953 225.885C560.124 221.182 554.067 214.704 551.994 206.668C550.753 201.843 550.974 196.589 548.861 192.094C546.5 187.054 541.482 183.641 536.116 182.142C530.749 180.644 525.087 180.845 519.56 181.47C514.032 182.095 492.727 183.694 490.44 189.937C489.212 193.296 494.304 200.506 495.511 203.812C497.499 209.233 498.998 214.821 499.992 220.51Z" fill="black"/>
<path d="M545.647 293.678L556.847 270.007C562.095 258.914 567.457 247.26 566.9 235.01C566.793 232.574 566.766 229.53 568.911 228.426C569.842 228.047 570.857 227.917 571.854 228.051C583.644 228.653 595.28 231.003 606.378 235.023C608.529 235.799 610.734 236.696 612.242 238.408C613.75 240.121 614.36 242.423 614.876 244.63C616.634 252.095 617.917 259.664 618.717 267.291C620.728 286.171 619.729 305.219 618.717 324.16L615.741 381.985C615.757 382.806 615.59 383.619 615.252 384.367C614.514 385.705 612.852 386.153 611.358 386.408C605.6 387.391 599.716 387.19 593.884 386.97C552.866 385.417 511.632 383.036 470.881 388C471.065 381.983 470.968 375.962 470.593 369.936C468.978 343.917 462.222 318.533 455.586 293.323C451.719 278.604 447.972 262.547 454.199 248.678C455.115 246.488 456.431 244.487 458.08 242.777C460.727 240.188 464.34 238.823 467.919 237.846C474.093 236.17 480.487 235.448 486.88 235.705L529.139 327.545C531.069 331.747 532.658 336.169 534.581 340.317C536.311 333.152 534.233 324.755 536.31 316.988C538.549 308.926 542.075 301.212 545.647 293.678Z" fill="white"/>
<path d="M540.95 356.717C548.53 357.193 555.895 353.318 561.11 347.84C566.325 342.363 569.766 335.417 572.676 328.398C576.859 318.392 580.184 308.051 582.615 297.484C584.631 288.501 586.063 279.202 584.672 270.097C582.75 257.527 575.62 246.103 574.403 233.445C574.195 231.233 574.329 228.645 576.11 227.311C577.212 226.486 578.664 226.372 580.035 226.292C592.709 225.541 606.634 225.682 616.452 233.707C619.443 236.147 621.869 239.197 624.792 241.712C631.754 247.745 641.593 250.816 646.062 258.828C647.621 261.617 648.367 264.774 649.455 267.778C652.023 274.884 656.465 281.133 660.88 287.281C656.599 305.302 651.68 323.336 647.399 341.357C644.892 351.93 642.365 362.543 638.427 372.666C635.847 379.303 632.601 386.075 633.394 393.181C633.71 395.977 634.644 398.652 635.457 401.347C638.308 410.807 639.643 420.656 639.415 430.531L447.658 431C456.845 417.86 459.54 401.743 458.606 385.753C458.156 378.09 456.422 370.38 452.558 363.749C446.469 353.358 435.757 346.587 425.199 340.787C417.807 336.765 409.87 359.398 401.88 356.804C403.17 347.699 403.762 312.556 403.224 303.391C403.049 300.387 402.78 297.303 403.708 294.434C404.34 292.47 405.502 290.713 406.288 288.802C409.44 281.153 406.436 271.371 411.53 264.861C415.052 260.336 421.228 259.049 426.248 256.26C431.402 253.39 435.387 248.885 439.876 245.037C448.685 237.575 459.448 232.781 470.897 231.219C474.237 236.475 476.267 242.452 476.818 248.651C477.161 252.546 476.912 256.495 477.456 260.37C478.202 265.619 480.38 270.547 482.537 275.401C491.522 295.641 500.54 315.941 511.925 334.948C515.144 340.311 518.645 345.675 523.309 349.852C527.973 354.028 534.686 357.012 540.95 356.717Z" fill="#00576B"/>
<path opacity="0.1" d="M540.95 356.717C548.53 357.193 555.895 353.318 561.11 347.84C566.325 342.363 569.766 335.417 572.676 328.398C576.859 318.392 580.184 308.051 582.615 297.484C584.631 288.501 586.063 279.202 584.672 270.097C582.75 257.527 575.62 246.103 574.403 233.445C574.195 231.233 574.329 228.645 576.11 227.311C577.212 226.486 578.664 226.372 580.035 226.292C592.709 225.541 606.634 225.682 616.452 233.707C619.443 236.147 621.869 239.197 624.792 241.712C631.754 247.745 641.593 250.816 646.062 258.828C647.621 261.617 648.367 264.774 649.455 267.778C652.023 274.884 656.465 281.133 660.88 287.281C656.599 305.302 651.68 323.336 647.399 341.357C644.892 351.93 642.365 362.543 638.427 372.666C635.847 379.303 632.601 386.075 633.394 393.181C633.71 395.977 634.644 398.652 635.457 401.347C638.308 410.807 639.643 420.656 639.415 430.531L447.658 431C456.845 417.86 459.54 401.743 458.606 385.753C458.156 378.09 456.422 370.38 452.558 363.749C446.469 353.358 435.757 346.587 425.199 340.787C417.807 336.765 409.87 359.398 401.88 356.804C403.17 347.699 403.762 312.556 403.224 303.391C403.049 300.387 402.78 297.303 403.708 294.434C404.34 292.47 405.502 290.713 406.288 288.802C409.44 281.153 406.436 271.371 411.53 264.861C415.052 260.336 421.228 259.049 426.248 256.26C431.402 253.39 435.387 248.885 439.876 245.037C448.685 237.575 459.448 232.781 470.897 231.219C474.237 236.475 476.267 242.452 476.818 248.651C477.161 252.546 476.912 256.495 477.456 260.37C478.202 265.619 480.38 270.547 482.537 275.401C491.522 295.641 500.54 315.941 511.925 334.948C515.144 340.311 518.645 345.675 523.309 349.852C527.973 354.028 534.686 357.012 540.95 356.717Z" fill="black"/>
<path d="M531.38 219C563.136 219 588.88 193.256 588.88 161.5C588.88 129.744 563.136 104 531.38 104C499.623 104 473.88 129.744 473.88 161.5C473.88 193.256 499.623 219 531.38 219Z" fill="#EFB7B9"/>
<path d="M500.548 237.973C502.129 223.11 495.929 208.568 488.909 195.359C485.547 189.046 481.943 182.754 480.255 175.818C478.567 168.882 479.051 161.028 483.368 155.325C487.039 150.473 492.863 147.853 498.249 145.005C513.452 136.963 527.351 125.142 534.035 109.334C530.256 111.384 531.238 117.503 534.573 120.203C537.908 122.904 542.453 123.427 546.555 124.713C561.51 129.404 570.48 144.268 577.675 158.153C578.852 160.418 580.048 162.811 580.035 165.364C580.022 167.917 578.852 170.182 577.628 172.353C574.077 178.653 569.734 184.704 568.12 191.747C566.271 199.789 568.221 208.246 570.756 216.133C573.445 224.523 577.016 232.981 583.471 238.998C589.926 245.016 599.939 248.005 607.88 244.118C599.952 230.535 591.742 215.356 594.835 199.956C596.328 192.585 600.342 185.883 602.05 178.552C605.305 164.566 599.885 150.179 594.566 136.829L578.67 96.9898C576.243 90.8983 573.479 84.3979 567.911 80.9467C564.146 78.6214 559.587 78.0182 555.176 77.596C540.974 76.3362 526.262 76.7517 513.042 82.0189C488.956 91.6086 473.853 115.251 461.871 138.183C458.28 145.052 454.736 152.35 454.884 160.097C454.965 164.345 456.155 168.48 457.124 172.621C461.064 189.482 461.279 206.953 461.481 224.262C461.635 237.544 460.943 250.062 455.113 262.158C463.101 263.74 474.687 268.009 482.595 264.886C492.903 260.825 499.251 248.313 500.548 237.973Z" fill="#454B69"/>
<g opacity="0.1">
<path opacity="0.1" d="M461.821 224.073C461.848 222.178 461.848 220.266 461.821 218.335C461.619 200.981 461.404 183.466 457.467 166.562C456.588 163.273 455.901 159.935 455.411 156.565C455.273 157.722 455.213 158.887 455.23 160.052C455.311 164.311 456.5 168.457 457.467 172.609C461.384 189.412 461.626 206.82 461.821 224.073Z" fill="black"/>
<path opacity="0.1" d="M602.306 178.528C603.188 174.603 603.482 170.568 603.179 166.556C603.048 168.551 602.756 170.533 602.306 172.481C600.6 179.872 596.589 186.53 595.097 193.941C594.454 197.209 594.273 200.552 594.56 203.871C594.667 202.567 594.846 201.271 595.097 199.987C596.589 192.577 600.6 185.892 602.306 178.528Z" fill="black"/>
<path opacity="0.1" d="M579.785 162.222C580.113 161.268 580.29 160.268 580.309 159.259C580.309 156.699 579.127 154.301 577.951 152.03C570.762 138.109 561.827 123.221 546.858 118.504C542.759 117.214 538.224 116.69 534.885 113.983C534.026 113.243 533.323 112.338 532.818 111.323C532.312 110.308 532.015 109.202 531.943 108.07C524.66 121.44 512.15 131.666 498.592 138.848C493.217 141.703 487.392 144.33 483.723 149.195C480.277 153.763 479.276 159.709 479.874 165.46C480.213 161.769 481.543 158.239 483.723 155.241C487.392 150.377 493.21 147.75 498.592 144.895C512.15 137.713 524.66 127.487 531.943 114.117C532.015 115.249 532.312 116.355 532.818 117.37C533.323 118.385 534.026 119.289 534.885 120.029C538.245 122.717 542.759 123.261 546.858 124.551C561.8 129.254 570.762 144.156 577.951 158.077C578.68 159.403 579.294 160.79 579.785 162.222V162.222Z" fill="black"/>
<path opacity="0.1" d="M583.743 233.082C577.293 227.036 573.739 218.57 571.038 210.159C569.417 205.434 568.336 200.541 567.813 195.573C567.188 202.473 568.901 209.534 571.038 216.205C573.725 224.617 577.293 233.096 583.743 239.129C590.193 245.162 600.197 248.159 608.131 244.262C607.177 242.63 606.23 240.97 605.289 239.297C597.919 241.373 589.454 238.417 583.743 233.082Z" fill="black"/>
<path opacity="0.1" d="M500.889 232.055C499.593 242.421 493.25 254.965 482.924 259.063C475.755 261.905 465.55 258.64 457.763 256.833C457.093 258.719 456.326 260.569 455.465 262.376C463.447 263.961 475.023 268.241 482.924 265.11C493.25 261.012 499.593 248.468 500.889 238.101C501.157 235.508 501.206 232.896 501.037 230.294C500.997 230.879 500.936 231.47 500.889 232.055Z" fill="black"/>
</g>
<path d="M582.059 398.411C571.768 396.761 561.324 393.574 551.119 395.717C545.204 396.956 539.796 399.934 534.88 403.531C537.584 405.721 540.741 407.674 542.46 410.719C543.527 412.826 544.328 415.06 544.845 417.368C545.924 421.41 547.009 425.533 547.176 429.737C547.342 433.94 546.51 438.319 544.032 441.708C557.007 443.001 569.583 439.768 582.239 436.608C583.686 436.351 585.064 435.789 586.282 434.958C588.28 433.368 588.867 430.538 588.88 427.958C588.88 423.35 587.601 418.857 586.302 414.438C584.757 409.136 583.611 403.679 582.059 398.411Z" fill="white"/>
<path d="M652.374 285.428C657.558 286.1 661.579 290.26 664.539 294.534C672.844 306.43 676.426 320.851 680.413 334.783C685.369 352.108 691.197 369.159 697.896 385.938C699.339 389.813 701.093 393.566 703.141 397.161C704.81 399.936 706.837 402.604 707.574 405.756C709.358 413.377 703.039 420.541 696.45 424.788C692.938 427.142 689.103 428.98 685.063 430.245C681.13 431.415 677.028 431.858 672.953 432.302L635.439 436.334C618.172 438.202 600.75 440.07 583.476 438.269C582.388 434.506 584.524 431.845 584.369 427.927C584.26 425.124 583.017 422.517 581.909 419.936C579.865 415.34 578.514 410.469 577.901 405.481C577.705 403.646 577.638 401.764 576.935 400.057C576.232 398.35 574.725 396.818 572.88 396.697C583.017 395.696 590.714 393.794 600.851 392.786C604.616 392.41 608.528 391.986 611.738 389.997C615.719 387.531 617.949 383.082 619.72 378.767C624.106 368.082 626.93 356.308 624.626 344.991C622.734 335.71 617.456 327.068 617.483 317.599C617.483 311.96 619.416 306.497 621.7 301.335C624.119 295.879 627.275 290.301 632.587 287.532C637.899 284.763 646.38 284.622 652.374 285.428Z" fill="#00576B"/>
<path opacity="0.08" d="M652.374 285.428C657.558 286.1 661.579 290.26 664.539 294.534C672.844 306.43 676.426 320.851 680.413 334.783C685.369 352.108 691.197 369.159 697.896 385.938C699.339 389.813 701.093 393.566 703.141 397.161C704.81 399.936 706.837 402.604 707.574 405.756C709.358 413.377 703.039 420.541 696.45 424.788C692.938 427.142 689.103 428.98 685.063 430.245C681.13 431.415 677.028 431.858 672.953 432.302L635.439 436.334C618.172 438.202 600.75 440.07 583.476 438.269C582.388 434.506 584.524 431.845 584.369 427.927C584.26 425.124 583.017 422.517 581.909 419.936C579.865 415.34 578.514 410.469 577.901 405.481C577.705 403.646 577.638 401.764 576.935 400.057C576.232 398.35 574.725 396.818 572.88 396.697C583.017 395.696 590.714 393.794 600.851 392.786C604.616 392.41 608.528 391.986 611.738 389.997C615.719 387.531 617.949 383.082 619.72 378.767C624.106 368.082 626.93 356.308 624.626 344.991C622.734 335.71 617.456 327.068 617.483 317.599C617.483 311.96 619.416 306.497 621.7 301.335C624.119 295.879 627.275 290.301 632.587 287.532C637.899 284.763 646.38 284.622 652.374 285.428Z" fill="black"/>
<path d="M418.94 276.207C421.375 270.414 423.849 264.432 423.916 258.148C423.99 251.353 421.234 244.901 419.128 238.449C416.524 230.555 414.79 222.399 413.957 214.127C413.784 213.334 413.904 212.506 414.292 211.795C414.849 211.008 415.922 210.847 416.868 210.639C421.509 209.577 425.016 205.82 427.914 202.036C427.914 202.036 425.68 204.758 441.763 202.48C447.43 201.028 452.815 198.917 458.482 197.466C459.592 197.115 460.754 196.96 461.916 197.009C465.31 197.365 467.389 201.969 465.417 204.758C468.187 208.011 472.794 208.884 476.416 211.116C480.037 213.347 482.64 218.872 479.42 221.674C478.79 222.219 477.992 222.602 477.536 223.301C475.98 225.707 479.789 228.469 479.474 231.319C479.219 233.651 476.235 234.739 473.975 234.121C471.715 233.503 469.951 231.809 467.939 230.566C465.927 229.322 463.298 228.55 461.346 229.84C460.823 236.164 460.26 242.61 457.53 248.369C456.531 250.473 455.25 252.442 454.445 254.626C453.675 257.008 453.198 259.475 453.023 261.972L450.589 284.279C438.973 286.611 428.557 283.123 418.94 276.207Z" fill="#EFB7B9"/>
<path d="M416.347 296.567L414.22 282.131C414.017 280.956 413.903 279.767 413.88 278.574C413.88 275.231 415.347 272.042 416.767 269C428.535 274.509 441.257 276.468 454.239 276.475C455.952 276.475 457.906 276.315 458.973 274.971C461.18 277.518 461.247 281.617 460.306 284.853C459.366 288.089 457.559 291.004 456.359 294.16C455.752 295.758 455.259 297.503 454.099 298.733C452.299 300.679 449.378 301.013 446.725 301C443.933 300.982 441.148 300.716 438.403 300.204C431.296 298.88 423.455 295.29 416.347 296.567Z" fill="white"/>
<path d="M459.942 295.972C450.778 294.925 441.674 293.449 432.631 291.543C428.196 290.611 423.721 289.57 419.199 289.752C416.256 289.872 413.092 290.463 410.503 289C413.025 297.61 413.179 306.682 410.162 315.13C408.376 320.163 405.653 324.854 404.342 330.034C401.613 340.872 405.359 352.689 401.948 363.332C401.587 364.722 400.878 365.997 399.887 367.036C398.844 367.995 397.419 368.492 396.456 369.532C395.038 371.062 394.951 373.364 394.944 375.451L394.884 393.938C394.844 405.708 394.997 418.19 401.192 428.161C408.255 439.569 423.125 445.481 436.069 442.012C439.51 441.129 442.734 439.546 445.541 437.361C450.036 433.778 452.899 428.597 455.701 423.551C459.046 417.512 462.391 411.338 463.467 404.54C464.23 399.729 463.802 394.817 463.253 389.979C460.23 363.137 453.668 336.523 455.079 309.581C455.291 304.656 456.986 299.91 459.942 295.972V295.972Z" fill="#00576B"/>
<path d="M498.756 407.956C494.109 408.221 489.428 408.487 484.801 407.956C481.457 407.557 478.194 406.741 474.877 406.183C465.819 404.731 456.552 405.241 447.712 407.68C438.872 410.119 430.668 414.428 423.663 420.312C421.095 422.49 418.5 425.829 419.918 428.877C421.443 432.157 426.103 432.064 429.694 431.453C425.818 433.291 422.395 435.949 419.664 439.241C418.661 440.456 417.711 441.897 417.905 443.47C418.313 446.757 422.807 447.355 426.13 447.069C425.047 448.224 425.776 450.269 427.153 451.053C428.531 451.836 430.243 451.677 431.801 451.391C435.245 450.765 438.573 449.621 441.67 447.999C441.042 449.625 442.132 451.531 443.676 452.341C445.221 453.151 447.1 453.091 448.832 452.812C457.003 451.484 463.824 445.841 471.795 443.623C484.54 440.084 497.873 445.728 511.12 446.126C515.266 446.252 519.519 445.834 523.297 444.134C527.931 442.043 531.669 438.119 536.564 436.725C542 435.184 548.239 436.957 553.214 434.295C556.831 432.363 553.568 417.47 552.645 414.602C550.954 409.357 549.255 405.878 543.618 405.346C529.355 403.959 513.126 407.133 498.756 407.956Z" fill="#EFB7B9"/>
<path d="M534.88 403.512C534.88 403.512 556.337 421.918 543.957 442L567.88 433.629V416.059C567.88 415.223 558.796 402.677 558.796 402.677L548.064 401L534.88 403.512Z" fill="white"/>
<path d="M269.863 400.745C272.063 400.745 273.846 398.962 273.846 396.762C273.846 394.562 272.063 392.779 269.863 392.779C267.663 392.779 265.88 394.562 265.88 396.762C265.88 398.962 267.663 400.745 269.863 400.745Z" fill="#002E40"/>
<path d="M269.863 395.768C272.063 395.768 273.846 393.985 273.846 391.785C273.846 389.585 272.063 387.802 269.863 387.802C267.663 387.802 265.88 389.585 265.88 391.785C265.88 393.985 267.663 395.768 269.863 395.768Z" fill="#002E40"/>
<path d="M269.863 350.966C272.063 350.966 273.846 349.183 273.846 346.983C273.846 344.783 272.063 343 269.863 343C267.663 343 265.88 344.783 265.88 346.983C265.88 349.183 267.663 350.966 269.863 350.966Z" fill="#002E40"/>
<path d="M266.916 391H276.622C281.936 391 287.032 393.111 290.79 396.869C294.547 400.626 296.658 405.722 296.658 411.036V440.779H246.88V411.036C246.88 408.405 247.398 405.8 248.405 403.369C249.412 400.938 250.888 398.729 252.748 396.869C254.609 395.008 256.818 393.532 259.249 392.525C261.68 391.518 264.285 391 266.916 391Z" fill="#002E40"/>
<path opacity="0.1" d="M266.913 390.708H276.619C281.933 390.708 287.029 392.818 290.787 396.576C294.545 400.334 296.655 405.43 296.655 410.744V440.486H246.877V410.744C246.877 408.113 247.395 405.507 248.402 403.076C249.409 400.645 250.885 398.437 252.746 396.576C254.606 394.715 256.815 393.24 259.246 392.233C261.677 391.226 264.282 390.708 266.913 390.708Z" fill="black"/>
<path d="M269.775 391.701C271.975 391.701 273.758 389.918 273.758 387.718C273.758 385.518 271.975 383.735 269.775 383.735C267.575 383.735 265.792 385.518 265.792 387.718C265.792 389.918 267.575 391.701 269.775 391.701Z" fill="#002E40"/>
<path d="M269.775 386.724C271.975 386.724 273.758 384.941 273.758 382.741C273.758 380.541 271.975 378.758 269.775 378.758C267.575 378.758 265.792 380.541 265.792 382.741C265.792 384.941 267.575 386.724 269.775 386.724Z" fill="#002E40"/>
<path d="M269.775 381.747C271.975 381.747 273.758 379.964 273.758 377.764C273.758 375.564 271.975 373.781 269.775 373.781C267.575 373.781 265.792 375.564 265.792 377.764C265.792 379.964 267.575 381.747 269.775 381.747Z" fill="#002E40"/>
<path d="M269.775 376.77C271.975 376.77 273.758 374.987 273.758 372.787C273.758 370.587 271.975 368.804 269.775 368.804C267.575 368.804 265.792 370.587 265.792 372.787C265.792 374.987 267.575 376.77 269.775 376.77Z" fill="#002E40"/>
<path d="M269.775 371.785C271.975 371.785 273.758 370.002 273.758 367.802C273.758 365.602 271.975 363.818 269.775 363.818C267.575 363.818 265.792 365.602 265.792 367.802C265.792 370.002 267.575 371.785 269.775 371.785Z" fill="#002E40"/>
<path d="M275.754 373.781C277.953 373.781 279.737 371.998 279.737 369.798C279.737 367.598 277.953 365.814 275.754 365.814C273.554 365.814 271.77 367.598 271.77 369.798C271.77 371.998 273.554 373.781 275.754 373.781Z" fill="#002E40"/>
<path d="M279.737 371.785C281.937 371.785 283.72 370.002 283.72 367.802C283.72 365.602 281.937 363.818 279.737 363.818C277.537 363.818 275.754 365.602 275.754 367.802C275.754 370.002 277.537 371.785 279.737 371.785Z" fill="#002E40"/>
<path d="M283.72 369.798C285.92 369.798 287.703 368.014 287.703 365.814C287.703 363.614 285.92 361.831 283.72 361.831C281.52 361.831 279.737 363.614 279.737 365.814C279.737 368.014 281.52 369.798 283.72 369.798Z" fill="#002E40"/>
<path d="M269.775 366.808C271.975 366.808 273.758 365.024 273.758 362.825C273.758 360.625 271.975 358.841 269.775 358.841C267.575 358.841 265.792 360.625 265.792 362.825C265.792 365.024 267.575 366.808 269.775 366.808Z" fill="#002E40"/>
<path d="M269.775 361.831C271.975 361.831 273.758 360.048 273.758 357.848C273.758 355.648 271.975 353.865 269.775 353.865C267.575 353.865 265.792 355.648 265.792 357.848C265.792 360.048 267.575 361.831 269.775 361.831Z" fill="#002E40"/>
<path d="M269.775 356.854C271.975 356.854 273.758 355.07 273.758 352.87C273.758 350.671 271.975 348.887 269.775 348.887C267.575 348.887 265.792 350.671 265.792 352.87C265.792 355.07 267.575 356.854 269.775 356.854Z" fill="#002E40"/>
<path d="M286.317 335.046C285.323 335.191 284.329 335.295 283.335 335.359C284.259 334.553 285.117 333.674 285.9 332.73C285.348 331.056 284.537 329.48 283.496 328.058C282.508 328.612 281.417 328.956 280.29 329.067C279.304 329.212 278.31 329.316 277.316 329.388C278.623 328.322 279.841 326.719 281.123 325.381C278.25 322.777 274.57 321.239 270.698 321.026C266.826 320.812 262.999 321.936 259.857 324.208C256.715 326.48 254.449 329.764 253.439 333.507C252.43 337.251 252.737 341.228 254.311 344.772C255.884 348.317 258.628 351.212 262.082 352.974C265.536 354.737 269.49 355.258 273.283 354.452C277.076 353.646 280.477 351.56 282.915 348.545C285.354 345.53 286.682 341.769 286.677 337.892C286.678 336.916 286.592 335.943 286.421 334.982L286.317 335.046Z" fill="#00576B"/>
<path d="M299.597 354.834C298.581 355.459 297.435 355.841 296.247 355.948C295.261 356.093 294.267 356.205 293.273 356.269C294.33 355.321 295.315 354.298 296.223 353.207C293.821 352.581 291.273 352.873 289.075 354.026C286.877 355.18 285.189 357.111 284.339 359.443C283.49 361.775 283.541 364.34 284.482 366.636C285.424 368.933 287.188 370.796 289.429 371.86C291.671 372.925 294.229 373.116 296.604 372.395C298.979 371.674 300.999 370.093 302.271 367.961C303.542 365.83 303.972 363.301 303.478 360.869C302.983 358.437 301.6 356.276 299.597 354.81V354.834Z" fill="#00576B"/>
<path d="M263.804 373.781C266.004 373.781 267.787 371.998 267.787 369.798C267.787 367.598 266.004 365.814 263.804 365.814C261.604 365.814 259.821 367.598 259.821 369.798C259.821 371.998 261.604 373.781 263.804 373.781Z" fill="#002E40"/>
<path d="M259.821 371.785C262.021 371.785 263.804 370.002 263.804 367.802C263.804 365.602 262.021 363.818 259.821 363.818C257.621 363.818 255.837 365.602 255.837 367.802C255.837 370.002 257.621 371.785 259.821 371.785Z" fill="#002E40"/>
<path d="M255.837 369.798C258.037 369.798 259.82 368.014 259.82 365.814C259.82 363.614 258.037 361.831 255.837 361.831C253.637 361.831 251.854 363.614 251.854 365.814C251.854 368.014 253.637 369.798 255.837 369.798Z" fill="#002E40"/>
<path d="M239.961 354.834C240.976 355.459 242.123 355.841 243.311 355.948C244.296 356.093 245.29 356.205 246.284 356.269C245.226 355.323 244.24 354.3 243.335 353.207C245.736 352.581 248.285 352.873 250.483 354.026C252.68 355.18 254.369 357.111 255.218 359.443C256.068 361.775 256.017 364.34 255.075 366.636C254.134 368.933 252.37 370.796 250.128 371.86C247.886 372.925 245.328 373.116 242.953 372.395C240.579 371.674 238.558 370.093 237.287 367.961C236.016 365.83 235.585 363.301 236.08 360.869C236.574 358.437 237.958 356.276 239.961 354.81V354.834Z" fill="#00576B"/>
<path d="M266.914 393.657H276.619C281.933 393.657 287.029 395.768 290.787 399.525C294.545 403.283 296.656 408.379 296.656 413.693V440.037C296.656 440.938 296.298 441.803 295.66 442.44C295.023 443.077 294.159 443.435 293.257 443.435H250.251C249.35 443.435 248.486 443.077 247.848 442.44C247.211 441.803 246.853 440.938 246.853 440.037V413.693C246.853 411.06 247.372 408.453 248.381 406.02C249.389 403.588 250.867 401.378 252.73 399.517C254.593 397.656 256.805 396.181 259.239 395.175C261.672 394.17 264.28 393.654 266.914 393.657V393.657Z" fill="#002E40"/>
<g opacity="0.1">
<path opacity="0.1" d="M286.589 336.136C286.186 336.567 285.758 336.974 285.307 337.354C285.764 337.354 286.213 337.282 286.669 337.234C286.653 336.866 286.629 336.497 286.589 336.136Z" fill="black"/>
<path opacity="0.1" d="M279.328 331.376C280.33 331.312 281.316 331.207 282.309 331.063C283.201 330.95 284.072 330.713 284.898 330.358C284.493 329.557 284.027 328.788 283.504 328.058C283.005 328.361 282.465 328.591 281.901 328.739C281.115 329.685 280.255 330.567 279.328 331.376Z" fill="black"/>
<path opacity="0.1" d="M254.844 339.927C254.838 336.889 255.651 333.905 257.199 331.29C258.746 328.675 260.97 326.526 263.637 325.069C266.303 323.612 269.313 322.901 272.35 323.011C275.386 323.121 278.337 324.047 280.891 325.694L281.147 325.421C279.481 323.938 277.537 322.799 275.428 322.071C273.319 321.342 271.087 321.038 268.86 321.176C266.633 321.315 264.456 321.892 262.453 322.875C260.45 323.859 258.662 325.229 257.191 326.906C255.72 328.584 254.596 330.536 253.883 332.65C253.169 334.764 252.882 336.999 253.036 339.224C253.19 341.45 253.784 343.623 254.782 345.619C255.78 347.614 257.163 349.393 258.851 350.851C256.259 347.802 254.838 343.929 254.844 339.927Z" fill="black"/>
</g>
<g opacity="0.1">
<path opacity="0.1" d="M293.273 358.256C294.267 358.192 295.261 358.088 296.247 357.944C297.435 357.833 298.582 357.449 299.597 356.822C300.722 357.65 301.66 358.707 302.351 359.922C303.041 361.137 303.468 362.484 303.604 363.875C303.643 363.526 303.662 363.175 303.66 362.825C303.668 361.268 303.309 359.732 302.613 358.339C301.917 356.947 300.903 355.738 299.653 354.81C298.637 355.435 297.491 355.816 296.303 355.924L295.501 356.028C294.817 356.828 294.073 357.572 293.273 358.256Z" fill="black"/>
<path opacity="0.1" d="M293.674 354.858C294.007 354.862 294.338 354.886 294.668 354.93C295.189 354.377 295.702 353.784 296.223 353.207C294.749 352.814 293.205 352.764 291.71 353.063C290.214 353.363 288.808 354.002 287.599 354.932C286.39 355.861 285.411 357.057 284.739 358.426C284.066 359.794 283.718 361.3 283.72 362.825C283.72 363.161 283.72 363.49 283.768 363.819C284.014 361.363 285.165 359.086 286.995 357.43C288.826 355.774 291.206 354.858 293.674 354.858V354.858Z" fill="black"/>
</g>
<g opacity="0.1">
<path opacity="0.1" d="M246.284 358.256C245.29 358.192 244.296 358.088 243.311 357.944C242.122 357.833 240.976 357.449 239.96 356.822C238.835 357.65 237.897 358.707 237.206 359.922C236.516 361.137 236.089 362.484 235.953 363.875C235.914 363.526 235.896 363.175 235.897 362.825C235.89 361.268 236.248 359.732 236.944 358.339C237.641 356.947 238.655 355.738 239.904 354.81C240.92 355.435 242.067 355.816 243.254 355.924L244.056 356.028C244.736 356.831 245.481 357.577 246.284 358.256V358.256Z" fill="black"/>
<path opacity="0.1" d="M245.883 354.858C245.548 354.862 245.214 354.886 244.881 354.93C244.369 354.377 243.856 353.784 243.335 353.207C244.808 352.814 246.352 352.764 247.848 353.063C249.343 353.363 250.75 354.002 251.959 354.932C253.167 355.861 254.146 357.057 254.819 358.426C255.491 359.794 255.84 361.3 255.837 362.825C255.837 363.161 255.837 363.49 255.789 363.819C255.543 361.363 254.393 359.086 252.562 357.43C250.732 355.774 248.351 354.858 245.883 354.858V354.858Z" fill="black"/>
</g>
<path d="M157.647 453.27H79.3444C78.4622 453.27 77.6162 452.92 76.9925 452.296C76.3687 451.673 76.0183 450.827 76.0183 449.944V412.885C76.0182 412.324 76.1601 411.772 76.4308 411.28C76.7015 410.788 77.0923 410.373 77.5667 410.073C78.0411 409.773 78.5837 409.598 79.1439 409.564C79.7042 409.53 80.2639 409.639 80.771 409.88C103.268 420.555 127.504 424.218 156.108 410.048C156.615 409.798 157.177 409.681 157.742 409.708C158.307 409.735 158.855 409.905 159.336 410.202C159.817 410.5 160.214 410.914 160.491 411.407C160.767 411.901 160.914 412.456 160.917 413.021V449.888C160.924 450.325 160.845 450.759 160.685 451.165C160.525 451.572 160.286 451.943 159.982 452.257C159.679 452.571 159.316 452.822 158.915 452.996C158.515 453.17 158.084 453.263 157.647 453.27V453.27Z" fill="#00576B"/>
<path opacity="0.1" d="M157.647 453.27H79.3444C78.4622 453.27 77.6162 452.92 76.9925 452.296C76.3687 451.673 76.0183 450.827 76.0183 449.944V412.885C76.0182 412.324 76.1601 411.772 76.4308 411.28C76.7015 410.788 77.0923 410.373 77.5667 410.073C78.0411 409.773 78.5837 409.598 79.1439 409.564C79.7042 409.53 80.2639 409.639 80.771 409.88C103.268 420.555 127.504 424.218 156.108 410.048C156.615 409.798 157.177 409.681 157.742 409.708C158.307 409.735 158.855 409.905 159.336 410.202C159.817 410.5 160.214 410.914 160.491 411.407C160.767 411.901 160.914 412.456 160.917 413.021V449.888C160.924 450.325 160.845 450.759 160.685 451.165C160.525 451.572 160.286 451.943 159.982 452.257C159.679 452.571 159.316 452.822 158.915 452.996C158.515 453.17 158.084 453.263 157.647 453.27V453.27Z" fill="black"/>
<path d="M117.951 425.099C120.509 425.099 122.583 422.383 122.583 419.032C122.583 415.682 120.509 412.965 117.951 412.965C115.392 412.965 113.318 415.682 113.318 419.032C113.318 422.383 115.392 425.099 117.951 425.099Z" fill="#002E40"/>
<path d="M117.951 417.686C120.509 417.686 122.583 414.969 122.583 411.619C122.583 408.268 120.509 405.552 117.951 405.552C115.392 405.552 113.318 408.268 113.318 411.619C113.318 414.969 115.392 417.686 117.951 417.686Z" fill="#002E40"/>
<path d="M117.951 410.264C120.509 410.264 122.583 407.548 122.583 404.197C122.583 400.847 120.509 398.13 117.951 398.13C115.392 398.13 113.318 400.847 113.318 404.197C113.318 407.548 115.392 410.264 117.951 410.264Z" fill="#002E40"/>
<path d="M117.951 402.851C120.509 402.851 122.583 400.135 122.583 396.784C122.583 393.433 120.509 390.717 117.951 390.717C115.392 390.717 113.318 393.433 113.318 396.784C113.318 400.135 115.392 402.851 117.951 402.851Z" fill="#002E40"/>
<path d="M117.951 395.429C120.509 395.429 122.583 392.713 122.583 389.362C122.583 386.012 120.509 383.295 117.951 383.295C115.392 383.295 113.318 386.012 113.318 389.362C113.318 392.713 115.392 395.429 117.951 395.429Z" fill="#002E40"/>
<path d="M117.951 388.008C120.509 388.008 122.583 385.292 122.583 381.941C122.583 378.59 120.509 375.874 117.951 375.874C115.392 375.874 113.318 378.59 113.318 381.941C113.318 385.292 115.392 388.008 117.951 388.008Z" fill="#002E40"/>
<path d="M117.951 380.594C120.509 380.594 122.583 377.878 122.583 374.527C122.583 371.177 120.509 368.46 117.951 368.46C115.392 368.46 113.318 371.177 113.318 374.527C113.318 377.878 115.392 380.594 117.951 380.594Z" fill="#002E40"/>
<path d="M135.326 323.763C135.955 322.954 136.531 322.106 137.049 321.222L124.867 319.219L138.043 319.315C139.314 316.561 140.008 313.575 140.081 310.543C140.154 307.51 139.605 304.495 138.468 301.683L120.796 310.851L137.097 298.83C135.571 296.19 133.517 293.893 131.064 292.081C128.611 290.27 125.812 288.983 122.84 288.301C119.868 287.619 116.787 287.556 113.79 288.117C110.792 288.677 107.942 289.849 105.418 291.559C102.893 293.269 100.747 295.48 99.1148 298.056C97.4822 300.631 96.3974 303.515 95.928 306.528C95.4586 309.541 95.6148 312.618 96.3867 315.568C97.1586 318.518 98.5297 321.278 100.415 323.675C99.4243 324.927 98.5749 326.284 97.882 327.722L113.687 336.025L96.8562 330.335C95.6765 333.833 95.3863 337.569 96.0117 341.207C96.6372 344.845 98.1586 348.27 100.439 351.173C97.862 354.449 96.2592 358.383 95.8134 362.527C95.3676 366.671 96.0969 370.857 97.9178 374.606C99.7387 378.355 102.578 381.515 106.11 383.727C109.643 385.938 113.727 387.111 117.894 387.111C122.062 387.111 126.146 385.938 129.678 383.727C133.211 381.515 136.05 378.355 137.871 374.606C139.692 370.857 140.421 366.671 139.975 362.527C139.53 358.383 137.927 354.449 135.35 351.173C138.429 347.259 140.102 342.423 140.102 337.444C140.102 332.464 138.429 327.629 135.35 323.715L135.326 323.763Z" fill="#00576B"/>
<path opacity="0.1" d="M95.646 337.492C95.6387 342.473 97.3134 347.311 100.399 351.221C97.822 354.497 96.2192 358.432 95.7734 362.576C95.3276 366.719 96.0569 370.905 97.8778 374.654C99.6987 378.403 102.538 381.564 106.07 383.775C109.603 385.987 113.687 387.159 117.854 387.159C122.022 387.159 126.106 385.987 129.638 383.775C133.171 381.564 136.01 378.403 137.831 374.654C139.652 370.905 140.381 366.719 139.935 362.576C139.49 358.432 137.887 354.497 135.31 351.221C138.284 347.446 95.646 335 95.646 337.492Z" fill="black"/>
<path d="M157.647 455.234H79.3444C78.4622 455.234 77.6162 454.884 76.9925 454.26C76.3687 453.636 76.0183 452.79 76.0183 451.908V412.885C76.0182 412.324 76.1601 411.772 76.4308 411.28C76.7015 410.788 77.0923 410.373 77.5667 410.073C78.0411 409.773 78.5837 409.598 79.1439 409.564C79.7042 409.53 80.2639 409.639 80.771 409.88C103.268 420.555 121.108 433.002 156.108 410.048C158.184 408.685 160.917 410.545 160.917 413.021V451.892C160.921 452.767 160.58 453.609 159.968 454.235C159.356 454.86 158.522 455.219 157.647 455.234Z" fill="#00576B"/>
<path d="M753.88 446.648L657.059 459.366L652.216 460L604.88 434.896V429.02L752.805 413L753.88 446.648Z" fill="#9C9CA1"/>
<path d="M632.88 437.68L737.88 425L736.804 444.856L655.016 451L632.88 437.68Z" fill="#939498"/>
<path opacity="0.4" d="M656.88 453.025V459.333L652.054 460L604.88 434.875V429L649.906 453.005C649.906 453.005 655.809 453.559 656.88 453.025Z" fill="black"/>
<path d="M675.756 352.908L654.026 453.235C653.807 454.24 653.834 455.282 654.105 456.274C654.375 457.266 654.882 458.178 655.581 458.934C656.28 459.69 657.152 460.268 658.123 460.617C659.093 460.967 660.134 461.08 661.158 460.945L798.631 442.825C799.828 442.668 800.957 442.178 801.888 441.412C802.819 440.645 803.515 439.634 803.895 438.492L833.555 349.432C833.882 348.443 833.964 347.391 833.792 346.364C833.621 345.338 833.201 344.368 832.569 343.539C831.937 342.71 831.113 342.046 830.166 341.605C829.219 341.164 828.179 340.959 827.135 341.007L681.745 347.88C680.331 347.947 678.978 348.476 677.895 349.384C676.813 350.293 676.061 351.532 675.756 352.908V352.908Z" fill="#002E40"/>
<path d="M751.441 389.696C751.779 386.486 750.38 383.707 748.317 383.49C746.254 383.274 744.309 385.7 743.971 388.911C743.634 392.121 745.033 394.9 747.095 395.117C749.158 395.334 751.104 392.907 751.441 389.696Z" fill="white"/>
</svg>
